<svg width="66" height="66" viewBox="0 0 66 66" fill="none" xmlns="http://www.w3.org/2000/svg">
<rect width="66" height="66" rx="8" fill="#CBEA7B"/>
<path d="M32.4975 47.1587C32.7252 47.1587 33.0809 47.0733 33.4367 46.8883C41.5334 42.6478 44.1376 40.5275 44.1376 35.419V24.6897C44.1376 23.224 43.5114 22.7544 42.3162 22.2563C40.6513 21.5733 35.3293 19.638 33.6786 19.0688C33.2944 18.9408 32.8959 18.8696 32.4975 18.8696C32.099 18.8696 31.7006 18.955 31.3306 19.0688C29.6657 19.6096 24.3437 21.5875 22.6789 22.2563C21.4978 22.7402 20.8574 23.224 20.8574 24.6897V35.419C20.8574 40.5275 23.6038 42.4059 31.5583 46.8883C31.9283 47.0876 32.2698 47.1587 32.4975 47.1587ZM26.0798 33.4837C26.0798 33.313 26.1652 33.0995 26.3217 32.9146L34.3616 22.8255C34.9735 22.0571 35.9981 22.5694 35.6281 23.5228L32.9813 30.6378H37.9475C38.3317 30.6378 38.6164 30.9081 38.6164 31.2924C38.6164 31.4631 38.531 31.6766 38.3745 31.8615L30.3345 41.9506C29.7227 42.719 28.7123 42.2066 29.0681 41.2675L31.7291 34.1383H26.7486C26.3786 34.1383 26.0798 33.8679 26.0798 33.4837Z" fill="#262626"/>
</svg>
