<svg width="66" height="66" viewBox="0 0 66 66" fill="none" xmlns="http://www.w3.org/2000/svg">
<rect width="66" height="66" rx="8" fill="#CBEA7B"/>
<path d="M28.9419 49.8251H37.0599C41.6835 49.8251 43.9689 47.4514 43.929 42.704C43.8758 37.2823 43.8493 33.3441 43.7164 30.3905C43.3311 21.7049 40.9263 19.1559 33.0075 19.1559C25.0888 19.1559 22.6707 21.7049 22.2854 30.3905C22.1525 33.3441 22.1259 37.2823 22.0728 42.704C22.0329 47.4514 24.3182 49.8251 28.9419 49.8251ZM28.5566 44.4708C27.4139 44.4708 26.6832 43.7155 26.6832 42.5827V35.6234C26.6832 34.477 27.4139 33.7217 28.5566 33.7217H37.4585C38.5879 33.7217 39.3186 34.477 39.3186 35.6234V42.5827C39.3186 43.7155 38.5879 44.4708 37.4585 44.4708H28.5566ZM26.6832 38.9143H39.3186V37.3092H26.6832V38.9143ZM33.0075 16C30.4565 16 28.6628 17.7533 28.6628 20.1405H30.5362C30.5362 18.8322 31.546 17.9016 33.0075 17.9016C34.4557 17.9016 35.4788 18.8322 35.4788 20.1405H37.3522C37.3522 17.7533 35.5453 16 33.0075 16Z" fill="#1C1C1E"/>
</svg>
