<svg width="66" height="66" viewBox="0 0 66 66" fill="none" xmlns="http://www.w3.org/2000/svg">
<rect width="66" height="66" rx="8" fill="#CBEA7B"/>
<path d="M19.3359 35.4712H20.6308V32.6109H19.3359V35.4712ZM26.0666 48.8757C27.8454 48.8757 28.6707 47.2393 27.7031 45.5032L22.3811 36.0973C21.9257 35.3145 21.2427 34.9589 20.3889 34.9589C19.0513 34.9589 18.3255 35.9549 18.4394 37.2783C18.724 38.9717 19.8624 41.6753 21.2427 43.8953C23.4199 47.5808 24.6863 48.8757 26.0666 48.8757ZM46.8139 35.4712V32.6109H45.5189V35.4712H46.8139ZM40.0831 48.8757C41.4633 48.8757 42.7298 47.5808 44.9071 43.8953C46.2731 41.6753 47.4257 38.9717 47.7104 37.2783C47.8241 35.9549 47.0985 34.9589 45.7608 34.9589C44.9071 34.9589 44.224 35.3145 43.7687 36.0973L38.4467 45.5032C37.4648 47.2393 38.3044 48.8757 40.0831 48.8757ZM18.8521 32.369C18.8521 33.0377 19.2789 33.4505 19.9478 33.4505C20.6166 33.4505 21.015 33.0377 21.015 32.369C21.0861 24.6991 25.6539 19.8325 33.0678 19.8325C40.4958 19.8325 45.0494 24.6991 45.1204 32.369C45.1204 33.0377 45.5331 33.4505 46.202 33.4505C46.8708 33.4505 47.2834 33.0377 47.2834 32.369C47.2834 23.6461 41.9187 17.6553 33.0678 17.6553C24.2167 17.6553 18.8521 23.6461 18.8521 32.369Z" fill="#262626"/>
<path d="M30.3213 46.0584C31.2319 45.5319 31.474 44.3508 30.8905 43.3404L26.095 34.8737C25.5116 33.8633 24.3732 33.4933 23.4767 34.0198C22.9217 34.3187 22.7937 34.8452 23.0783 35.3433L28.9695 45.7026C29.2683 46.2149 29.7806 46.3572 30.3213 46.0584ZM35.8283 46.0584C36.369 46.3572 36.8813 46.2149 37.1659 45.7026L43.057 35.3433C43.3559 34.8452 43.2279 34.3187 42.6728 34.0198C41.7621 33.4933 40.6379 33.8633 40.0404 34.8737L35.2448 43.3404C34.6615 44.3508 34.9175 45.5319 35.8283 46.0584ZM24.7574 24.7847C27.0911 23.5182 29.8232 22.8921 33.0677 22.8921C36.3264 22.8921 39.0585 23.5182 41.3779 24.7847C39.5139 22.394 36.8529 21.1987 33.0677 21.1987C29.2967 21.1987 26.6357 22.394 24.7574 24.7847Z" fill="#262626"/>
</svg>
