<svg width="66" height="66" viewBox="0 0 66 66" fill="none" xmlns="http://www.w3.org/2000/svg">
<rect width="66" height="66" rx="8" fill="#CBEA7B"/>
<path d="M16 29.908C16 31.2599 16.8253 32.0852 18.1772 32.0852H47.135C48.4869 32.0852 49.3264 31.2599 49.3264 29.908V29.2108C49.3264 27.8731 48.4869 27.0194 47.135 27.0194H18.1772C16.8253 27.0194 16 27.8731 16 29.2108V29.908ZM25.0502 47.7097H40.2762C43.5633 47.7097 44.5879 45.7886 45.0005 43.7252L46.9785 34.0346H18.3622L20.3259 43.7252C20.7386 45.7886 21.7631 47.7097 25.0502 47.7097ZM25.9752 45.262C25.4344 45.3475 25.036 45.0629 24.9506 44.579L23.7268 37.4214C23.6415 36.9376 23.9545 36.5534 24.4953 36.4537C25.036 36.3826 25.4487 36.653 25.534 37.1368L26.7436 44.2945C26.8147 44.7783 26.5301 45.1625 25.9752 45.262ZM30.4861 45.2478C29.9453 45.2764 29.5468 44.949 29.5184 44.451L29.0488 37.3788C29.0204 36.8807 29.3761 36.5249 29.9026 36.4823C30.4575 36.4395 30.8275 36.7811 30.8703 37.2791L31.3398 44.3513C31.3682 44.8494 31.0126 45.2194 30.4861 45.2478ZM34.8689 45.2478C34.3282 45.2194 33.9724 44.8494 34.0008 44.3513L34.4704 37.2791C34.5131 36.7811 34.8831 36.4395 35.438 36.4823C35.9646 36.5249 36.3203 36.8807 36.2918 37.3788L35.8222 44.451C35.7938 44.949 35.3954 45.2764 34.8689 45.2478ZM39.3513 45.262C38.7963 45.1625 38.5118 44.7783 38.5829 44.2945L39.7925 37.1368C39.8778 36.653 40.2904 36.3826 40.8312 36.4537C41.3719 36.5534 41.6849 36.966 41.5996 37.4498L40.3758 44.579C40.2904 45.0629 39.8778 45.3475 39.3513 45.262ZM20.582 27.6312H23.428L28.437 18.9368C28.8212 18.2537 28.5081 17.6561 27.9816 17.3715C27.4693 17.1011 26.7863 17.1438 26.4021 17.7841L20.582 27.6312ZM41.8984 27.6312H44.7444L38.9244 17.7841C38.5544 17.158 37.8714 17.1153 37.3448 17.3715C36.8325 17.6561 36.5053 18.2537 36.8895 18.9368L41.8984 27.6312Z" fill="#262626"/>
</svg>
