<svg width="66" height="66" viewBox="0 0 66 66" fill="none" xmlns="http://www.w3.org/2000/svg">
<rect width="66" height="66" rx="8" fill="#CBEA7B"/>
<path d="M32.4765 40.0772H33.6544C40.1979 40.0772 44.6082 35.659 44.6082 28.8021V26.1407C44.6082 23.0204 39.9492 20.8965 33.0654 20.8965C26.1817 20.8965 21.5227 23.0204 21.5227 26.1407V28.8021C21.5227 35.4229 25.9199 40.0772 32.4765 40.0772ZM33.0654 29.3397C27.5951 29.3397 23.5643 27.9499 23.5643 26.1407C23.5643 24.3446 27.5951 22.9417 33.0654 22.9417C38.5489 22.9417 42.5797 24.3446 42.5797 26.1407C42.5797 27.9499 38.5489 29.3397 33.0654 29.3397ZM43.1948 34.2823H44.2286C47.147 34.2823 48.9007 32.7484 48.9007 30.205C48.9007 27.6746 47.134 26.1276 44.2286 26.1276H43.391V28.1597H44.2286C45.8907 28.1597 46.8591 28.9201 46.8591 30.205C46.8591 31.4767 45.8907 32.2502 44.2286 32.2502H43.1948V34.2823ZM33.0001 46.3572C42.9461 46.3572 50 43.5252 50 39.4085C50 37.809 48.9138 36.4062 47.0031 35.2787C46.2179 35.6065 45.3542 35.7901 44.3726 35.8163C42.2918 39.4479 38.4834 41.6111 33.6544 41.6111H32.4765C27.0978 41.6111 22.8968 38.753 21.0254 34.2823C17.8453 35.5148 16 37.2977 16 39.4085C16 43.5252 23.067 46.3572 33.0001 46.3572Z" fill="#1C1C1E"/>
</svg>
