<svg width="66" height="66" viewBox="0 0 66 66" fill="none" xmlns="http://www.w3.org/2000/svg">
<rect width="66" height="66" rx="8" fill="#CBEA7B"/>
<path d="M28.1623 48.9992C29.3576 48.9992 30.0975 48.3304 30.0833 47.1636L29.7987 31.1833C29.7987 30.6853 30.0122 30.3153 30.4533 30.1161C32.3316 29.2907 33.1427 28.4228 33.0431 25.9325L32.6447 17.1953C32.6162 16.5692 32.2462 16.2134 31.6628 16.2134C31.1079 16.2134 30.7663 16.5834 30.7663 17.2238L30.8659 25.719C30.8659 26.2171 30.5529 26.5301 30.0833 26.5301C29.5995 26.5301 29.258 26.2313 29.258 25.7617L29.1157 16.9676C29.1014 16.3557 28.7457 16 28.1623 16C27.5788 16 27.2373 16.3557 27.2231 16.9676L27.0808 25.7617C27.0808 26.2313 26.7393 26.5301 26.2555 26.5301C25.7859 26.5301 25.4586 26.2171 25.4586 25.719L25.5582 17.2238C25.5582 16.5834 25.2309 16.2134 24.6617 16.2134C24.0783 16.2134 23.7083 16.5692 23.6798 17.1953L23.2956 25.9325C23.1818 28.4228 23.9929 29.2907 25.8712 30.1161C26.3124 30.3153 26.5258 30.6853 26.5258 31.1833L26.2555 47.1636C26.2412 48.3304 26.9669 48.9992 28.1623 48.9992ZM39.29 36.5906L38.9912 47.0924C38.9486 48.3304 39.7027 48.9992 40.8838 48.9992C42.0933 48.9992 42.8333 48.3873 42.8333 47.2489V17.0672C42.8333 16.3415 42.3352 16 41.8229 16C41.2822 16 40.9265 16.2846 40.4712 16.9534C38.1801 20.1694 36.6718 26.1886 36.6718 31.8806V32.5778C36.6718 33.5597 37.0275 34.2854 37.739 34.755L38.5786 35.3243C39.0908 35.6799 39.3185 36.0785 39.29 36.5906Z" fill="#262626"/>
</svg>
