<svg width="66" height="66" viewBox="0 0 66 66" fill="none" xmlns="http://www.w3.org/2000/svg">
<rect width="66" height="66" rx="8" fill="#CBEA7B"/>
<path d="M47.6684 27.6652L36.1483 22.4074C34.9481 21.8675 33.9714 21.6093 32.9946 21.6328C32.0298 21.6093 31.053 21.8675 29.841 22.4074L18.3327 27.6652C17.5796 28.0056 17.2148 28.6041 17.2148 29.2027C17.2148 29.8012 17.5796 30.3881 18.3327 30.7402L23.1808 32.9466L30.6295 29.4609C30.5589 29.3788 30.5353 29.2848 30.5353 29.2027C30.5353 28.4633 31.7826 27.9 33.0417 27.9C34.3126 27.9 35.5364 28.4633 35.5364 29.2027C35.5364 29.9656 34.3126 30.5406 33.0417 30.5406C32.6534 30.5406 32.2651 30.4819 31.9238 30.3881L24.8165 33.7095L29.841 36.0098C31.053 36.5613 32.0298 36.7961 32.9946 36.7844C33.9714 36.7961 34.9481 36.5613 36.1483 36.0098L47.6684 30.7402C48.4215 30.3881 48.7863 29.8012 48.7863 29.2027C48.7863 28.6041 48.4215 28.0056 47.6684 27.6652ZM24.7694 35.4465V42.5821C26.7463 43.7792 29.5704 44.5068 32.9946 44.5068C39.9373 44.5068 44.4088 41.5376 44.4088 38.0284V33.9911L36.819 37.4534C35.4422 38.0871 34.195 38.404 32.9946 38.3923C31.8061 38.404 30.5471 38.0871 29.1703 37.4534L24.7694 35.4465ZM21.5923 33.9911V38.0284C21.5923 39.0494 22.1806 40.3169 23.2397 41.3967V34.754L21.5923 33.9911ZM23.2397 45.3049H24.7694V42.5821C24.181 42.23 23.6633 41.831 23.2397 41.3967V45.3049ZM22.31 45.3871V48.4737C22.31 49.4009 22.9102 49.9994 23.8398 49.9994H24.1575C25.0871 49.9994 25.6872 49.4009 25.6872 48.4737V45.3871C25.6872 44.4599 25.0871 43.8613 24.1575 43.8613H23.8398C22.9102 43.8613 22.31 44.4599 22.31 45.3871Z" fill="#1C1C1E"/>
</svg>
