<svg width="66" height="66" viewBox="0 0 66 66" fill="none" xmlns="http://www.w3.org/2000/svg">
<rect width="66" height="66" rx="8" fill="#CBEA7B"/>
<path d="M26.1006 49.661H39.901C42.591 49.661 43.9294 48.2683 43.9294 45.4561V25.1419C43.9294 22.3298 42.591 20.9371 40.031 20.9371H39.7322C39.7322 20.9906 39.7322 21.0576 39.7322 21.1112V22.6913C39.7322 24.3786 38.6276 25.5704 37.0163 25.5704H28.9855C27.3741 25.5704 26.2696 24.3786 26.2696 22.6913V21.1112C26.2696 21.0576 26.2696 20.9906 26.2696 20.9371H25.9707C23.4107 20.9371 22.0723 22.3298 22.0723 25.1419V45.4561C22.0723 48.2683 23.4107 49.661 26.1006 49.661ZM28.9855 24.017H37.0163C37.7699 24.017 38.2247 23.5216 38.2247 22.6913V21.2853C38.2247 20.455 37.7699 19.9595 37.0163 19.9595H35.8207C35.7298 18.4463 34.5082 17.2144 33.0009 17.2144C31.4935 17.2144 30.272 18.4463 30.181 19.9595H28.9855C28.2318 19.9595 27.777 20.455 27.777 21.2853V22.6913C27.777 23.5216 28.2318 24.017 28.9855 24.017ZM33.0009 21.2317C32.3771 21.2317 31.8703 20.696 31.8703 20.0667C31.8703 19.4105 32.3771 18.8882 33.0009 18.8882C33.6246 18.8882 34.1314 19.4105 34.1314 20.0667C34.1314 20.696 33.6246 21.2317 33.0009 21.2317Z" fill="#262626"/>
</svg>
