<svg width="66" height="66" viewBox="0 0 66 66" fill="none" xmlns="http://www.w3.org/2000/svg">
<rect width="66" height="66" rx="8" fill="#CBEA7B"/>
<path d="M22.0723 37.4161C22.0723 38.6256 22.8834 39.4225 24.1641 39.4225H31.8624V46.0678C31.8624 48.2451 32.7732 50.0523 33.1289 50.0523C33.4704 50.0523 34.3811 48.2451 34.3811 46.0678V39.4225H42.0796C43.3602 39.4225 44.1713 38.6256 44.1713 37.4161C44.1713 34.4136 41.7665 31.2403 37.7679 29.7889L37.2983 23.2573C39.3758 22.0762 41.0834 20.7386 41.8234 19.7852C42.1933 19.3014 42.3784 18.8176 42.3784 18.3907C42.3784 17.5227 41.7096 16.8823 40.7135 16.8823H25.5444C24.534 16.8823 23.8795 17.5227 23.8795 18.3907C23.8795 18.8176 24.0502 19.3014 24.4202 19.7852C25.1602 20.7386 26.8677 22.0762 28.9453 23.2573L28.4757 29.7889C24.4771 31.2403 22.0723 34.4136 22.0723 37.4161Z" fill="#1C1C1E"/>
</svg>
